<svg width="90" height="64" viewBox="0 0 90 64" fill="none" xmlns="http://www.w3.org/2000/svg">
<g clip-path="url(#clip0_2916_1690)">
<path d="M85.76 13C86.7998 12.9764 87.788 12.5426 88.5092 11.7933C89.2304 11.044 89.6261 10.0399 89.61 8.99999C89.6371 7.94743 89.248 6.92665 88.5273 6.1591C87.8065 5.39155 86.8122 4.93913 85.76 4.89999C84.7238 4.96191 83.7522 5.42425 83.0506 6.18932C82.3489 6.9544 81.9722 7.96228 82 8.99999C81.9854 9.51089 82.0715 10.0197 82.2536 10.4972C82.4357 10.9748 82.7101 11.4118 83.0611 11.7833C83.4122 12.1548 83.833 12.4534 84.2995 12.6622C84.766 12.871 85.2691 12.9858 85.78 13" fill="#C63529"/>
<path d="M62.41 29.14L61.29 25.88H52.29L48.39 41.81H60.12L58.92 38.25L53.07 38.33L55.29 29.14H62.41ZM44.47 41.81L48.33 26H44.11L42.47 33L37.87 32.92L39.57 25.92H35.43L31.35 41.81H35.57L36.91 36H41.65L40.54 41.85L44.47 41.81ZM81.53 5.94L83.24 4.74C64.63 -7.41 26 5.62999 14.23 23.06H20.38C35 7.13999 61.81 -5.33001 81.53 5.94ZM89 14.17L87.07 14.47C90.35 47.15 28.75 72.11 12.3 47.88L60.48 47.43V44.33L4.36 44.48C4.89 83.1 92.87 58.41 89 14.17ZM9.27 41.81L12.08 41.74L16.76 25.88H12.83L10.67 33.06L8.53 25.88H4.67L0 41.81L4 41.74L6.29 33.74L9.27 41.81ZM30.1 29.14L29 25.88H20.1L16.1 41.81H27.79L26.61 38.25L20.75 38.33L23 29.14H30.1Z" fill="#221E1F"/>
</g>
<defs>
<clipPath id="clip0_2916_1690">
<rect width="89.61" height="63.64" fill="white"/>
</clipPath>
</defs>
</svg>
